# xmcd
#
# Track frame offsets: 
#        150
#        12014
#        31246
#        49022
#        66470
#        87447
#        105426
#        128086
#        148031
#        165328
#        185800
#        203936
#        218472
#        233149
#        247923
#
# Disc length: 3614 seconds
#
# Revision: 0
# Processed by: cddbd v1.5.2PL0 Copyright (c) Steve Scherf et al.
# Submitted via: ExactAudioCopy v1.0b2
#
DISCID=c60e1c0f
DTITLE=Labo Deejay - House Temptation mixed by Labo Deejay
DYEAR=2011
DGENRE=House
TTITLE0=David Guetta feat. Jennifer Hudson - Night Of Your Life (Matt 
TTITLE0=Nevin Extended Mix)
TTITLE1=Sak Noel - Loca People (What the Fuck)
TTITLE2=Mattias and G80s feat. Master Freez and Monica Harem - We Gonna Pl
TTITLE2=ay (Original Mix)
TTITLE3=Onny - Like a drum (The tam tam song) (Extended version)
TTITLE4=Erick Morillo and Eddie Thoneick feat. Shawnee Taylor - Stronger
TTITLE4=(Stronger Club Mix)
TTITLE5=Cristian Marchi and Gianluca Motta - Love Comes Rising (Cristian
TTITLE5=Marchi and Paolo Sandrini Original Mix)
TTITLE6=Swedish House Mafia feat. John Martin - Save The World (Origin
TTITLE6=al Mix)
TTITLE7=Nadia Ali, Starkillers and Alex Kenji - Pressure (Alesso remix)
TTITLE8=Avicii - ID (Levels) (Original Mix)
TTITLE9=David Guetta and FloRida - Where Them Girls At (Club mix)
TTITLE10=DJ Spyne and Pippo Palmieri - Deep in My Soul (Bubbles Remix)
TTITLE11=Milk and Sugar feat. Miriam Makeba - Hi-a Ma (Pata Pata) (Milk 
TTITLE11=& Sugar Club Mix)
TTITLE12=The Mad Candy and Da Brozz - Be My Love (Extended Mix)
TTITLE13=Play and Win - Ya Bb (Club version)
TTITLE14=Diddy and Dirty Money feat. Skylar Grey - Coming Home (Dirty So
TTITLE14=uth Club Mix)
EXTD=
EXTT0=
EXTT1=
EXTT2=
EXTT3=
EXTT4=
EXTT5=
EXTT6=
EXTT7=
EXTT8=
EXTT9=
EXTT10=
EXTT11=
EXTT12=
EXTT13=
EXTT14=
PLAYORDER=
